<svg aria-hidden="true" style="position: absolute; width: 0; height: 0; overflow: hidden;" version="1.1" xmlns="http://www.w3.org/2000/svg" xmlns:xlink="http://www.w3.org/1999/xlink">
<defs>
<symbol id="icon-videocam_off" viewBox="0 0 24 24">
<path d="M3.281 2.016l17.719 17.719-1.266 1.266-3.188-3.188q-0.281 0.188-0.563 0.188h-12q-0.422 0-0.703-0.281t-0.281-0.703v-10.031q0-0.422 0.281-0.703t0.703-0.281h0.75l-2.719-2.719zM21 6.516v10.688l-11.203-11.203h6.188q0.422 0 0.727 0.281t0.305 0.703v3.516z"></path>
</symbol>
<symbol id="icon-content_copy" viewBox="0 0 24 24">
<path d="M18.984 21v-14.016h-10.969v14.016h10.969zM18.984 5.016q0.797 0 1.406 0.586t0.609 1.383v14.016q0 0.797-0.609 1.406t-1.406 0.609h-10.969q-0.797 0-1.406-0.609t-0.609-1.406v-14.016q0-0.797 0.609-1.383t1.406-0.586h10.969zM15.984 0.984v2.016h-12v14.016h-1.969v-14.016q0-0.797 0.586-1.406t1.383-0.609h12z"></path>
</symbol>
<symbol id="icon-videocam" viewBox="0 0 24 24">
<path d="M17.016 10.5l3.984-3.984v10.969l-3.984-3.984v3.516q0 0.422-0.305 0.703t-0.727 0.281h-12q-0.422 0-0.703-0.281t-0.281-0.703v-10.031q0-0.422 0.281-0.703t0.703-0.281h12q0.422 0 0.727 0.281t0.305 0.703v3.516z"></path>
</symbol>
<symbol id="icon-microphone-slash" viewBox="0 0 22 28">
<path d="M4.234 14.766l-1.578 1.578c-0.422-1.031-0.656-2.156-0.656-3.344v-2c0-0.547 0.453-1 1-1s1 0.453 1 1v2c0 0.609 0.094 1.203 0.234 1.766zM21.641 5.359l-5.641 5.641v2c0 2.75-2.25 5-5 5-0.594 0-1.172-0.109-1.703-0.297l-1.5 1.5c0.953 0.5 2.047 0.797 3.203 0.797 3.859 0 7-3.141 7-7v-2c0-0.547 0.453-1 1-1s1 0.453 1 1v2c0 4.625-3.5 8.437-8 8.937v2.063h4c0.547 0 1 0.453 1 1s-0.453 1-1 1h-10c-0.547 0-1-0.453-1-1s0.453-1 1-1h4v-2.063c-1.328-0.141-2.578-0.594-3.672-1.266l-3.969 3.969c-0.203 0.203-0.516 0.203-0.719 0l-1.281-1.281c-0.203-0.203-0.203-0.516 0-0.719l19.281-19.281c0.203-0.203 0.516-0.203 0.719 0l1.281 1.281c0.203 0.203 0.203 0.516 0 0.719zM15.703 3.297l-9.703 9.703v-8c0-2.75 2.25-5 5-5 2.156 0 4 1.391 4.703 3.297z"></path>
</symbol>
<symbol id="icon-microphone" viewBox="0 0 18 28">
<path d="M18 11v2c0 4.625-3.5 8.437-8 8.937v2.063h4c0.547 0 1 0.453 1 1s-0.453 1-1 1h-10c-0.547 0-1-0.453-1-1s0.453-1 1-1h4v-2.063c-4.5-0.5-8-4.312-8-8.937v-2c0-0.547 0.453-1 1-1s1 0.453 1 1v2c0 3.859 3.141 7 7 7s7-3.141 7-7v-2c0-0.547 0.453-1 1-1s1 0.453 1 1zM14 5v8c0 2.75-2.25 5-5 5s-5-2.25-5-5v-8c0-2.75 2.25-5 5-5s5 2.25 5 5z"></path>
</symbol>
<symbol id="icon-gmail" viewBox="0 0 32 32">
<path fill="#d14836" style="fill: var(--color1, #d14836)" d="M32 6v20c0 1.133-0.867 2-2 2h-2v-18.151l-12 8.617-12-8.617v18.151h-2c-1.135 0-2-0.867-2-2v-20c0-0.567 0.216-1.067 0.575-1.424 0.359-0.363 0.86-0.576 1.425-0.576h0.667l13.333 9.667 13.333-9.667h0.667c0.567 0 1.067 0.216 1.425 0.576 0.36 0.357 0.575 0.857 0.575 1.424z"></path>
</symbol>
<symbol id="icon-linkedin1" viewBox="0 0 32 32">
<path d="M29 0h-26c-1.65 0-3 1.35-3 3v26c0 1.65 1.35 3 3 3h26c1.65 0 3-1.35 3-3v-26c0-1.65-1.35-3-3-3zM12 26h-4v-14h4v14zM10 10c-1.106 0-2-0.894-2-2s0.894-2 2-2c1.106 0 2 0.894 2 2s-0.894 2-2 2zM26 26h-4v-8c0-1.106-0.894-2-2-2s-2 0.894-2 2v8h-4v-14h4v2.481c0.825-1.131 2.087-2.481 3.5-2.481 2.488 0 4.5 2.238 4.5 5v9z"></path>
</symbol>
<symbol id="icon-github" viewBox="0 0 32 32">
<path d="M16 0.395c-8.836 0-16 7.163-16 16 0 7.069 4.585 13.067 10.942 15.182 0.8 0.148 1.094-0.347 1.094-0.77 0-0.381-0.015-1.642-0.022-2.979-4.452 0.968-5.391-1.888-5.391-1.888-0.728-1.849-1.776-2.341-1.776-2.341-1.452-0.993 0.11-0.973 0.11-0.973 1.606 0.113 2.452 1.649 2.452 1.649 1.427 2.446 3.743 1.739 4.656 1.33 0.143-1.034 0.558-1.74 1.016-2.14-3.554-0.404-7.29-1.777-7.29-7.907 0-1.747 0.625-3.174 1.649-4.295-0.166-0.403-0.714-2.030 0.155-4.234 0 0 1.344-0.43 4.401 1.64 1.276-0.355 2.645-0.532 4.005-0.539 1.359 0.006 2.729 0.184 4.008 0.539 3.054-2.070 4.395-1.64 4.395-1.64 0.871 2.204 0.323 3.831 0.157 4.234 1.026 1.12 1.647 2.548 1.647 4.295 0 6.145-3.743 7.498-7.306 7.895 0.574 0.497 1.085 1.47 1.085 2.963 0 2.141-0.019 3.864-0.019 4.391 0 0.426 0.288 0.925 1.099 0.768 6.354-2.118 10.933-8.113 10.933-15.18 0-8.837-7.164-16-16-16z"></path>
</symbol>
<symbol id="icon-linkedin1" viewBox="0 0 32 32">
<path d="M29 0h-26c-1.65 0-3 1.35-3 3v26c0 1.65 1.35 3 3 3h26c1.65 0 3-1.35 3-3v-26c0-1.65-1.35-3-3-3zM12 26h-4v-14h4v14zM10 10c-1.106 0-2-0.894-2-2s0.894-2 2-2c1.106 0 2 0.894 2 2s-0.894 2-2 2zM26 26h-4v-8c0-1.106-0.894-2-2-2s-2 0.894-2 2v8h-4v-14h4v2.481c0.825-1.131 2.087-2.481 3.5-2.481 2.488 0 4.5 2.238 4.5 5v9z"></path>
</symbol>
</defs>
</svg>
